<mxfile host="app.diagrams.net" agent="Mozilla/5.0 (Windows NT 10.0; Win64; x64; rv:132.0) Gecko/20100101 Firefox/132.0" version="24.8.6">
  <diagram name="Strona-1" id="FmqvvrgZPfo9vvcMWb01">
    <mxGraphModel dx="1034" dy="448" grid="1" gridSize="10" guides="1" tooltips="1" connect="1" arrows="1" fold="1" page="1" pageScale="1" pageWidth="827" pageHeight="1169" math="0" shadow="0">
      <root>
        <mxCell id="0" />
        <mxCell id="1" parent="0" />
        <mxCell id="4889p7bt1avp2y3wRski-60" value="Webinary" style="swimlane;childLayout=stackLayout;horizontal=1;startSize=50;horizontalStack=0;rounded=1;fontSize=14;fontStyle=0;strokeWidth=2;resizeParent=0;resizeLast=1;shadow=0;dashed=0;align=center;arcSize=4;whiteSpace=wrap;html=1;" vertex="1" parent="1">
          <mxGeometry x="100" y="80" width="180" height="130" as="geometry" />
        </mxCell>
        <mxCell id="4889p7bt1avp2y3wRski-61" value="&lt;div&gt;+ Webinar ID&lt;br&gt;&lt;/div&gt;&lt;div&gt;+ cena&lt;/div&gt;+ klucz dostępu&lt;br&gt;&lt;div&gt;+ data webinaru&lt;/div&gt;&lt;div&gt;+ link do nagranego webinaru&lt;br&gt;&lt;/div&gt;&lt;div&gt;&lt;br&gt;&lt;/div&gt;" style="align=left;strokeColor=none;fillColor=none;spacingLeft=4;fontSize=12;verticalAlign=top;resizable=0;rotatable=0;part=1;html=1;" vertex="1" parent="4889p7bt1avp2y3wRski-60">
          <mxGeometry y="50" width="180" height="80" as="geometry" />
        </mxCell>
        <mxCell id="4889p7bt1avp2y3wRski-62" style="edgeStyle=orthogonalEdgeStyle;rounded=0;orthogonalLoop=1;jettySize=auto;html=1;exitX=0.5;exitY=1;exitDx=0;exitDy=0;entryX=0.5;entryY=1;entryDx=0;entryDy=0;" edge="1" parent="4889p7bt1avp2y3wRski-60" source="4889p7bt1avp2y3wRski-60" target="4889p7bt1avp2y3wRski-61">
          <mxGeometry relative="1" as="geometry" />
        </mxCell>
        <mxCell id="4889p7bt1avp2y3wRski-71" value="Kursy" style="swimlane;childLayout=stackLayout;horizontal=1;startSize=50;horizontalStack=0;rounded=1;fontSize=14;fontStyle=0;strokeWidth=2;resizeParent=0;resizeLast=1;shadow=0;dashed=0;align=center;arcSize=4;whiteSpace=wrap;html=1;" vertex="1" parent="1">
          <mxGeometry x="440" y="300" width="160" height="120" as="geometry" />
        </mxCell>
        <mxCell id="4889p7bt1avp2y3wRski-72" value="+ forma (stacjo/online/..)&lt;br&gt;+ klucz indywidualny kursu&lt;br&gt;+ cena" style="align=left;strokeColor=none;fillColor=none;spacingLeft=4;fontSize=12;verticalAlign=top;resizable=0;rotatable=0;part=1;html=1;" vertex="1" parent="4889p7bt1avp2y3wRski-71">
          <mxGeometry y="50" width="160" height="70" as="geometry" />
        </mxCell>
        <mxCell id="4889p7bt1avp2y3wRski-73" value="Studia" style="swimlane;childLayout=stackLayout;horizontal=1;startSize=50;horizontalStack=0;rounded=1;fontSize=14;fontStyle=0;strokeWidth=2;resizeParent=0;resizeLast=1;shadow=0;dashed=0;align=center;arcSize=4;whiteSpace=wrap;html=1;" vertex="1" parent="1">
          <mxGeometry x="70" y="270" width="160" height="120" as="geometry" />
        </mxCell>
        <mxCell id="4889p7bt1avp2y3wRski-74" value="+Attribute1&#xa;+Attribute2&#xa;+Attribute3" style="align=left;strokeColor=none;fillColor=none;spacingLeft=4;fontSize=12;verticalAlign=top;resizable=0;rotatable=0;part=1;html=1;" vertex="1" parent="4889p7bt1avp2y3wRski-73">
          <mxGeometry y="50" width="160" height="70" as="geometry" />
        </mxCell>
        <mxCell id="4889p7bt1avp2y3wRski-75" value="Uczestnicy" style="swimlane;childLayout=stackLayout;horizontal=1;startSize=50;horizontalStack=0;rounded=1;fontSize=14;fontStyle=0;strokeWidth=2;resizeParent=0;resizeLast=1;shadow=0;dashed=0;align=center;arcSize=4;whiteSpace=wrap;html=1;" vertex="1" parent="1">
          <mxGeometry x="600" y="80" width="160" height="120" as="geometry" />
        </mxCell>
        <mxCell id="4889p7bt1avp2y3wRski-76" value="+Uczestnik ID&lt;br&gt;+Imie&lt;br&gt;&lt;div&gt;+Nazwisko&lt;/div&gt;&lt;div&gt;+ status konta&lt;br&gt;&lt;/div&gt;" style="align=left;strokeColor=none;fillColor=none;spacingLeft=4;fontSize=12;verticalAlign=top;resizable=0;rotatable=0;part=1;html=1;" vertex="1" parent="4889p7bt1avp2y3wRski-75">
          <mxGeometry y="50" width="160" height="70" as="geometry" />
        </mxCell>
        <mxCell id="4889p7bt1avp2y3wRski-78" value="Pracownicy" style="swimlane;childLayout=stackLayout;horizontal=1;startSize=50;horizontalStack=0;rounded=1;fontSize=14;fontStyle=0;strokeWidth=2;resizeParent=0;resizeLast=1;shadow=0;dashed=0;align=center;arcSize=4;whiteSpace=wrap;html=1;" vertex="1" parent="1">
          <mxGeometry x="260" y="465" width="160" height="120" as="geometry" />
        </mxCell>
        <mxCell id="4889p7bt1avp2y3wRski-79" value="+ Imie&lt;br&gt;+Nazwisko&lt;br&gt;+Stanowisko" style="align=left;strokeColor=none;fillColor=none;spacingLeft=4;fontSize=12;verticalAlign=top;resizable=0;rotatable=0;part=1;html=1;" vertex="1" parent="4889p7bt1avp2y3wRski-78">
          <mxGeometry y="50" width="160" height="70" as="geometry" />
        </mxCell>
        <mxCell id="4889p7bt1avp2y3wRski-80" value="Uczestnik w webinarze" style="swimlane;childLayout=stackLayout;horizontal=1;startSize=50;horizontalStack=0;rounded=1;fontSize=14;fontStyle=0;strokeWidth=2;resizeParent=0;resizeLast=1;shadow=0;dashed=0;align=center;arcSize=4;whiteSpace=wrap;html=1;" vertex="1" parent="1">
          <mxGeometry x="360" y="85" width="160" height="120" as="geometry" />
        </mxCell>
        <mxCell id="4889p7bt1avp2y3wRski-81" value="+ Webinar ID&lt;br&gt;+ Uczestnik ID&lt;br&gt;&lt;div&gt;+ Płatność za webinar&lt;br&gt;&lt;/div&gt;&lt;div&gt;&lt;br&gt;&lt;/div&gt;" style="align=left;strokeColor=none;fillColor=none;spacingLeft=4;fontSize=12;verticalAlign=top;resizable=0;rotatable=0;part=1;html=1;" vertex="1" parent="4889p7bt1avp2y3wRski-80">
          <mxGeometry y="50" width="160" height="70" as="geometry" />
        </mxCell>
        <mxCell id="4889p7bt1avp2y3wRski-85" style="edgeStyle=orthogonalEdgeStyle;rounded=0;orthogonalLoop=1;jettySize=auto;html=1;entryX=0;entryY=0.143;entryDx=0;entryDy=0;entryPerimeter=0;" edge="1" parent="1" source="4889p7bt1avp2y3wRski-60" target="4889p7bt1avp2y3wRski-81">
          <mxGeometry relative="1" as="geometry" />
        </mxCell>
        <mxCell id="4889p7bt1avp2y3wRski-86" style="edgeStyle=orthogonalEdgeStyle;rounded=0;orthogonalLoop=1;jettySize=auto;html=1;exitX=0;exitY=0.25;exitDx=0;exitDy=0;" edge="1" parent="1" source="4889p7bt1avp2y3wRski-76">
          <mxGeometry relative="1" as="geometry">
            <mxPoint x="450" y="160" as="targetPoint" />
          </mxGeometry>
        </mxCell>
        <mxCell id="4889p7bt1avp2y3wRski-89" value="Stanowisko" style="swimlane;childLayout=stackLayout;horizontal=1;startSize=50;horizontalStack=0;rounded=1;fontSize=14;fontStyle=0;strokeWidth=2;resizeParent=0;resizeLast=1;shadow=0;dashed=0;align=center;arcSize=4;whiteSpace=wrap;html=1;" vertex="1" parent="1">
          <mxGeometry x="500" y="465" width="160" height="120" as="geometry" />
        </mxCell>
        <mxCell id="4889p7bt1avp2y3wRski-90" value="+Nazwa Stanowiska&lt;br&gt;+ Uprawnienia&lt;br&gt;+Attribute3" style="align=left;strokeColor=none;fillColor=none;spacingLeft=4;fontSize=12;verticalAlign=top;resizable=0;rotatable=0;part=1;html=1;" vertex="1" parent="4889p7bt1avp2y3wRski-89">
          <mxGeometry y="50" width="160" height="70" as="geometry" />
        </mxCell>
      </root>
    </mxGraphModel>
  </diagram>
</mxfile>
